# xmcd
#
# Track frame offsets:
#	150
#	8822
#	22127
#	33540
#	44835
#	56555
#	69227
#	80832
#	92692
#	101627
#
# Disc length: 1501
#
# Revision: 1
# Processed by: cddbd v1.5.1PL0 Copyright (c) Steve Scherf et al.
# Submitted via: ExactAudioCopy v0.95a3
# Normalized: r0:TDELIM( - )
#
DISCID=8505db0a
DTITLE=Various Artist - The Best Country Christmas, Vol2
DYEAR=2000
DGENRE=Country
TTITLE0=Loretta Lynn - Frosty The Snowman
TTITLE1=Johnny Cash - Peace In The Valley
TTITLE2=Patti Page - Christmas Bells
TTITLE3=Bob Wills - When It's Christmas On The Range
TTITLE4=Statler Brothers - Whose Birthday Is Christmas?
TTITLE5=Lynn Anderson - When A Child Is Born
TTITLE6=Wayne Newton - Away In A Manager
TTITLE7=Jerry Lee Lewis - I Can't Have A Merry Christmas Mary (Without You)
TTITLE8=Roger Miller - Silent Night
TTITLE9=Ray Stevens - Greatest Christmas That Ever Wuz
EXTD=Universal Music Enterprises\nCopyright, 2000
EXTT0=
EXTT1=
EXTT2=
EXTT3=
EXTT4=
EXTT5=
EXTT6=
EXTT7=
EXTT8=
EXTT9=
PLAYORDER=
